<svg width="27" height="26" viewBox="0 0 27 26" fill="none" xmlns="http://www.w3.org/2000/svg">
<path d="M24.1144 20.4282C23.451 19.8163 22.8052 19.1868 22.178 18.5404C21.651 18.0249 21.3337 17.6498 21.3337 17.6498L17.3673 15.8261C18.9552 14.092 19.8316 11.8597 19.8321 9.54779C19.8321 4.28423 15.3841 0 9.91605 0C4.44806 0 0 4.28423 0 9.54779C0 14.8114 4.44806 19.0956 9.91605 19.0956C12.4135 19.0956 14.6899 18.1954 16.4366 16.7236L18.3305 20.5428C18.3305 20.5428 18.7201 20.8483 19.2556 21.3557C19.8038 21.8508 20.5248 22.5205 21.2161 23.2202L23.1398 25.1189L23.9954 26L27 23.107L26.0849 22.2832C25.548 21.7758 24.8312 21.102 24.1144 20.4282ZM9.91605 16.3676C6.01055 16.3676 2.83316 13.3083 2.83316 9.54779C2.83316 5.78733 6.01055 2.72794 9.91605 2.72794C13.8216 2.72794 16.999 5.78733 16.999 9.54779C16.999 13.3083 13.8216 16.3676 9.91605 16.3676Z" fill="black"/>
</svg>
