<svg width="134" height="153" viewBox="0 0 134 153" fill="none" xmlns="http://www.w3.org/2000/svg">
<path opacity="0.4" d="M66.9375 76.5C88.0646 76.5 105.188 59.3771 105.188 38.25C105.188 17.1229 88.0646 0 66.9375 0C45.8104 0 28.6875 17.1229 28.6875 38.25C28.6875 59.3771 45.8104 76.5 66.9375 76.5ZM95.5652 86.2418L81.2812 143.438L71.7188 102.797L81.2812 86.0625H52.5938L62.1562 102.797L52.5938 143.438L38.3098 86.2418C17.0033 87.2578 0 104.679 0 126.225V138.656C0 146.575 6.4248 153 14.3438 153H119.531C127.45 153 133.875 146.575 133.875 138.656V126.225C133.875 104.679 116.872 87.2578 95.5652 86.2418Z" fill="black"/>
</svg>
