<svg width="31" height="31" viewBox="0 0 31 31" fill="none" xmlns="http://www.w3.org/2000/svg">
<path d="M28.1655 12.9702H27.125V12.9166H15.5V18.0833H22.7999C21.7349 21.0909 18.8732 23.2499 15.5 23.2499C11.2201 23.2499 7.75004 19.7799 7.75004 15.4999C7.75004 11.22 11.2201 7.74992 15.5 7.74992C17.4756 7.74992 19.273 8.49521 20.6415 9.71261L24.295 6.05913C21.9881 3.90915 18.9023 2.58325 15.5 2.58325C8.36681 2.58325 2.58337 8.36669 2.58337 15.4999C2.58337 22.6331 8.36681 28.4166 15.5 28.4166C22.6333 28.4166 28.4167 22.6331 28.4167 15.4999C28.4167 14.6339 28.3276 13.7885 28.1655 12.9702Z" fill="#FFC107"/>
<path d="M4.07263 9.48786L8.3164 12.6001C9.46469 9.75717 12.2457 7.74992 15.5 7.74992C17.4756 7.74992 19.273 8.49521 20.6415 9.71261L24.295 6.05913C21.988 3.90915 18.9023 2.58325 15.5 2.58325C10.5387 2.58325 6.23617 5.38423 4.07263 9.48786Z" fill="#FF3D00"/>
<path d="M15.5 28.4166C18.8364 28.4166 21.868 27.1398 24.16 25.0635L20.1623 21.6806C18.8655 22.6629 17.2535 23.25 15.5 23.25C12.1404 23.25 9.28777 21.1077 8.2131 18.1182L4.00098 21.3635C6.13868 25.5465 10.48 28.4166 15.5 28.4166Z" fill="#4CAF50"/>
<path d="M28.1654 12.9704H27.125V12.9167H15.5V18.0834H22.7999C22.2884 19.5281 21.359 20.774 20.1603 21.6814C20.161 21.6807 20.1616 21.6807 20.1623 21.6801L24.16 25.0629C23.8771 25.32 28.4167 21.9584 28.4167 15.5001C28.4167 14.634 28.3275 13.7886 28.1654 12.9704Z" fill="#1976D2"/>
</svg>

